<?xml version="1.0" encoding="utf-8"?>
<!-- Generator: Adobe Illustrator 16.0.0, SVG Export Plug-In . SVG Version: 6.00 Build 0)  -->
<!DOCTYPE svg PUBLIC "-//W3C//DTD SVG 1.1//EN" "http://www.w3.org/Graphics/SVG/1.1/DTD/svg11.dtd">
<svg version="1.1" id="Layer_1" xmlns="http://www.w3.org/2000/svg" xmlns:xlink="http://www.w3.org/1999/xlink" x="0px" y="0px"
	 width="55.707px" height="55.707px" viewBox="0 0 55.707 55.707" enable-background="new 0 0 55.707 55.707" xml:space="preserve">
<g>
	<path fill="#999999" d="M51.422,55.707c-1.138,0-2.243-0.469-3.013-1.272l-11.483-11.45c-3.917,2.712-8.604,4.151-13.357,4.151
		C10.545,47.137,0,36.591,0,23.568S10.545,0,23.568,0s23.568,10.545,23.568,23.568c0,4.754-1.439,9.441-4.151,13.357l11.483,11.483
		c0.77,0.77,1.239,1.875,1.239,3.013C55.707,53.765,53.765,55.707,51.422,55.707z M23.568,8.57c-8.269,0-14.998,6.729-14.998,14.998
		s6.729,14.998,14.998,14.998s14.998-6.729,14.998-14.998S31.837,8.57,23.568,8.57z"/>
</g>
</svg>
